<?xml version="1.0" encoding="utf-8"?>
<!DOCTYPE svg PUBLIC "-//W3C//DTD SVG 1.1//EN" "http://www.w3.org/Graphics/SVG/1.1/DTD/svg11.dtd">
<svg version="1.1" id="Layer_1" xmlns="http://www.w3.org/2000/svg" xmlns:xlink="http://www.w3.org/1999/xlink" x="0px" y="0px"
	 width="43px" height="30px" viewBox="0 0 43 30" enable-background="new 0 0 43 30" xml:space="preserve">
<path fill="#F5F5F5" d="M29,20.35C26.843,25.988,21.397,30,15,30C6.716,30,0,23.284,0,15S6.716,0,15,0s15,6.716,15,15l0,0l0,0
	c0,7.18,5.82,13,13,13v2C36.603,30,31.157,25.989,29,20.35z M15,2C7.82,2,2,7.82,2,15s5.82,13,13,13c7.179,0,12.999-5.82,13-12.999
	c0,0,0,0,0-0.001l0,0l0,0C28,7.82,22.18,2,15,2z M22,18c-1.657,0-3-1.343-3-3s1.343-3,3-3s3,1.343,3,3S23.657,18,22,18z M15,25
	c-1.657,0-3-1.343-3-3s1.343-3,3-3s3,1.343,3,3S16.657,25,15,25z M15,13c1.105,0,2,0.896,2,2s-0.896,2-2,2c-1.105,0-2-0.895-2-2
	C13,13.896,13.895,13,15,13z M15,16c0.552,0,1-0.448,1-1s-0.448-1-1-1s-1,0.448-1,1S14.448,16,15,16z M15,11c-1.657,0-3-1.343-3-3
	s1.343-3,3-3s3,1.343,3,3S16.657,11,15,11z M8,18c-1.657,0-3-1.343-3-3s1.343-3,3-3s3,1.343,3,3S9.657,18,8,18z"/>
</svg>
